<?xml version="1.0" encoding="UTF-8"?><svg xmlns="http://www.w3.org/2000/svg" width="540" height="45"><g width="40" height="40" transform="translate(0 0)"><rect x="0" y="0" width="10" height="10" fill="white"/><rect x="0" y="10" width="10" height="10" fill="black"/><rect x="0" y="20" width="10" height="10" fill="white"/><rect x="0" y="30" width="10" height="10" fill="black"/><rect x="10" y="0" width="10" height="10" fill="black"/><rect x="10" y="10" width="10" height="10" fill="white"/><rect x="10" y="20" width="10" height="10" fill="black"/><rect x="10" y="30" width="10" height="10" fill="white"/><rect x="20" y="0" width="10" height="10" fill="white"/><rect x="20" y="10" width="10" height="10" fill="black"/><rect x="20" y="20" width="10" height="10" fill="white"/><rect x="20" y="30" width="10" height="10" fill="black"/><rect x="30" y="0" width="10" height="10" fill="black"/><rect x="30" y="10" width="10" height="10" fill="white"/><rect x="30" y="20" width="10" height="10" fill="black"/><rect x="30" y="30" width="10" height="10" fill="white"/><circle r="3" cx="5" cy="25" fill="#00bcd4"/><circle r="3" cx="15" cy="5" fill="#00bcd4"/><circle r="3" cx="25" cy="35" fill="#00bcd4"/><circle r="3" cx="35" cy="15" fill="#00bcd4"/><path d="M0 0 L40 0 L40 40 L0 40 0 0" fill="none" stroke="black"/></g><g width="40" height="40" transform="translate(45 0)"><rect x="0" y="0" width="10" height="10" fill="white"/><rect x="0" y="10" width="10" height="10" fill="black"/><rect x="0" y="20" width="10" height="10" fill="white"/><rect x="0" y="30" width="10" height="10" fill="black"/><rect x="10" y="0" width="10" height="10" fill="black"/><rect x="10" y="10" width="10" height="10" fill="white"/><rect x="10" y="20" width="10" height="10" fill="black"/><rect x="10" y="30" width="10" height="10" fill="white"/><rect x="20" y="0" width="10" height="10" fill="white"/><rect x="20" y="10" width="10" height="10" fill="black"/><rect x="20" y="20" width="10" height="10" fill="white"/><rect x="20" y="30" width="10" height="10" fill="black"/><rect x="30" y="0" width="10" height="10" fill="black"/><rect x="30" y="10" width="10" height="10" fill="white"/><rect x="30" y="20" width="10" height="10" fill="black"/><rect x="30" y="30" width="10" height="10" fill="white"/><circle r="3" cx="5" cy="15" fill="#00bcd4"/><circle r="3" cx="15" cy="35" fill="#00bcd4"/><circle r="3" cx="25" cy="5" fill="#00bcd4"/><circle r="3" cx="35" cy="25" fill="#00bcd4"/><path d="M0 0 L40 0 L40 40 L0 40 0 0" fill="none" stroke="black"/></g></svg>